<?xml version="1.0" standalone="no"?>
<!DOCTYPE svg PUBLIC "-//W3C//DTD SVG 20010904//EN"
 "http://www.w3.org/TR/2001/REC-SVG-20010904/DTD/svg10.dtd">
<svg version="1.0" xmlns="http://www.w3.org/2000/svg"
 width="500.000000pt" height="500.000000pt" viewBox="0 0 500.000000 500.000000"
 preserveAspectRatio="xMidYMid meet">

<g transform="translate(0.000000,500.000000) scale(0.100000,-0.100000)"
fill="#000000" stroke="none">
<path d="M1088 4607 c-14 -34 -82 -204 -153 -377 -70 -173 -138 -355 -150
-405 -73 -288 -55 -594 53 -900 29 -84 598 -1309 724 -1560 112 -222 260 -380
441 -471 123 -63 150 -65 626 -62 l426 3 67 26 c37 15 94 42 125 60 77 45 248
216 307 307 47 71 190 365 370 759 l88 191 -263 514 c-145 282 -275 537 -289
566 l-25 52 -62 -128 c-34 -70 -121 -249 -194 -397 -72 -149 -153 -315 -179
-370 -26 -55 -114 -237 -195 -405 -81 -168 -161 -334 -177 -370 l-30 -65 -38
80 c-20 44 -254 532 -520 1085 -265 553 -506 1055 -535 1115 -99 209 -387 810
-390 812 -1 2 -13 -25 -27 -60z"/>
<path d="M2469 3811 c-138 -44 -225 -120 -297 -259 -23 -44 -42 -87 -42 -95 0
-12 413 -346 440 -355 21 -8 106 46 159 99 43 43 93 121 219 338 89 154 162
283 162 286 0 3 -132 5 -292 4 -252 0 -301 -3 -349 -18z"/>
</g>
</svg>
